<svg version="1.0" xmlns="http://www.w3.org/2000/svg" width="333.333" height="333.333" viewBox="0 0 250 250"><path d="M110.5 27.1c-30.3 4.3-58.3 24.3-73 52.2-19.3 36.6-13.7 80.3 14.4 112.4 2.5 2.9 4.8 5.3 5.1 5.3.3 0 .5-4.4.5-9.8 0-8.6.3-10.3 2.8-15.4 3.6-7.4 10.1-13.9 17.5-17.5 5.1-2.5 6.8-2.8 15.7-2.8 8.9 0 10.6.3 15.7 2.8 7.4 3.6 13.9 10.1 17.5 17.5 2.5 5.1 2.8 6.7 2.8 15.7-.1 8.1-.5 10.9-2.3 14.8-2.8 6.1-11 14.9-16.2 17.2-2.2 1-4 2.1-4 2.6 0 .4 3.5 1.1 7.7 1.4 49.7 4.7 93.6-25.9 106.5-74.3 3.1-11.7 3.5-31 1-43.2-7.3-35.3-32.2-63.6-65.9-74.9-13.5-4.6-31.1-6.1-45.8-4z"/></svg>