<?xml version="1.0" standalone="no"?>
<!DOCTYPE svg PUBLIC "-//W3C//DTD SVG 20010904//EN"
 "http://www.w3.org/TR/2001/REC-SVG-20010904/DTD/svg10.dtd">
<svg version="1.0" xmlns="http://www.w3.org/2000/svg"
 width="250.000000pt" height="250.000000pt" viewBox="0 0 250.000000 250.000000"
 preserveAspectRatio="xMidYMid meet">

<g transform="translate(0.000000,250.000000) scale(0.100000,-0.100000)"
fill="#000000" stroke="none">
<path d="M1105 2229 c-303 -43 -583 -243 -730 -522 -193 -366 -137 -803 144
-1124 25 -29 48 -53 51 -53 3 0 5 44 5 98 0 86 3 103 28 154 36 74 101 139
175 175 51 25 68 28 157 28 89 0 106 -3 157 -28 74 -36 139 -101 175 -175 25
-51 28 -67 28 -157 -1 -81 -5 -109 -23 -148 -28 -61 -110 -149 -162 -172 -22
-10 -40 -21 -40 -26 0 -4 35 -11 77 -14 497 -47 936 259 1065 743 31 117 35
310 10 432 -73 353 -322 636 -659 749 -135 46 -311 61 -458 40z"/>
</g>
</svg>
